/* XPM */
static char * arrow_cursor[] = {
"24 24 105 2",
"  	c None",
"XX	c #000000",
"++	c #888888",
"..	c #434343",
"||	c #a4a4a4",
"//	c #404040",
"06	c #353535",
"07	c #565656",
"08	c #070707",
"09	c #ffffff",
"0a	c #656565",
"0b	c #1c1c1c",
"0c	c #313131",
"0d	c #4a4a4a",
"0e	c #727272",
"0f	c #d7d7d7",
"0g	c #f3f3f3",
"0h	c #6c6c6c",
"0i	c #e5e5e5",
"0j	c #1a1a1a",
"0k	c #2f2f2f",
"0l	c #505050",
"0m	c #b9b9b9",
"0n	c #6b6b6b",
"0o	c #686868",
"0p	c #c0c0c0",
"0q	c #fafafa",
"0r	c #f1f1f1",
"0s	c #cbcbcb",
"0t	c #c3c3c3",
"0u	c #dadada",
"0v	c #a2a2a2",
"0w	c #797979",
"0x	c #3c3c3c",
"0y	c #222222",
"0z	c #2c2c2c",
"10	c #666666",
"11	c #d1d1d1",
"12	c #cdcdcd",
"13	c #3e3e3e",
"14	c #6d6d6d",
"15	c #0d0d0d",
"16	c #828282",
"17	c #ededed",
"18	c #bdbdbd",
"19	c #606060",
"1a	c #393939",
"1b	c #515151",
"1c	c #545454",
"1d	c #aaaaaa",
"1e	c #f6f6f6",
"1f	c #acacac",
"1g	c #585858",
"1h	c #040404",
"1i	c #6a6a6a",
"1j	c #d5d5d5",
"1k	c #f0f0f0",
"1l	c #9a9a9a",
"1m	c #737373",
"1n	c #0f0f0f",
"1o	c #868686",
"1p	c #e8e8e8",
"1q	c #3a3a3a",
"1r	c #f7f7f7",
"1s	c #3b3b3b",
"1t	c #1b1b1b",
"1u	c #fbfbfb",
"1v	c #afafaf",
"1w	c #131313",
"1x	c #a3a3a3",
"1y	c #8f8f8f",
"1z	c #333333",
"20	c #e4e4e4",
"21	c #7f7f7f",
"22	c #454545",
"23	c #272727",
"24	c #323232",
"25	c #999999",
"26	c #4e4e4e",
"27	c #f9f9f9",
"28	c #b0b0b0",
"29	c #e1e1e1",
"2a	c #030303",
"2b	c #c7c7c7",
"2c	c #383838",
"2d	c #1e1e1e",
"2e	c #919191",
"2f	c #0a0a0a",
"2g	c #444444",
"2h	c #464646",
"2i	c #8e8e8e",
"2j	c #010101",
"2k	c #9e9e9e",
"2l	c #555555",
"2m	c #676767",
"2n	c #252525",
"2o	c #d6d6d6",
"2p	c #363636",
"2q	c #efefef",
"2r	c #a7a7a7",
"2s	c #fdfdfd",
"2t	c #494949",
"2u	c #989898",
"2v	c #2e2e2e",
"2w	c #1d1d1d",
"0b                                              ",
"0c0t0e0x                                        ",
"  ++0u0g||1b                                    ",
"  0d0v0y140i0f1m1q                              ",
"    0f0zXX0j070m1r1x0l                          ",
"    0w10XXXXXX081s1y0q0s0a2c                    ",
"    ..1115XXXXXXXXXX230a290r2e2h                ",
"      12//XXXXXXXXXXXXXX0j070m090s2m2p          ",
"      0h16XXXXXXXXXXXXXXXXXX2f//2i0q2q++..      ",
"      13170bXXXXXXXXXXXXXXXXXXXX2j2n2r092s2u2w  ",
"        181cXXXXXXXXXXXX2a2d2g0n2k2o||0a2t2v    ",
"        191d1hXXXXXX080e2b0i||0h2l06            ",
"        1a1e0kXXXXXX2427//                      ",
"          1f1iXXXXXX0o28                        ",
"          1g1j1nXX080p07                        ",
"          061k..XX1z0r06                        ",
"            1l1oXX0o25                          ",
"            0l0g1t0p26                          ",
"            0c1p0n200k                          ",
"              ++1u21                            ",
"              0d0922                            ",
"                1v                              ",
"                1w                              ",
"                                                "};